<svg width="100" height="32" viewBox="0 0 100 32" fill="none" xmlns="http://www.w3.org/2000/svg">
<path d="M17.6302 0.314941H16.274V5.20406H17.6302V17.9868C17.6302 20.5115 15.5627 22.5558 13.0115 22.5558C10.4624 22.5558 8.39485 20.5115 8.39485 17.9868V5.20406H9.75118V0.314941H8.39485H0V6.96166V18.2418C0 25.3553 5.82587 31.1209 13.0115 31.1209C20.1993 31.1209 26.0252 25.3553 26.0252 18.2418V6.96166V0.314941H17.6302Z" fill="#2AABE4"/>
<g filter="url(#filter0_i_2612_5443)">
<path d="M23.9299 25.2512C21.6106 28.7844 17.5866 31.1208 13.0116 31.1208C5.82587 31.1208 0 25.3552 0 18.2418V17.3962C1.04074 15.56 2.39864 13.2864 3.20734 12.1817C4.67016 10.1787 7.03903 6.76914 12.5934 6.6416C12.5934 6.6416 13.4972 5.8119 14.8314 5.57642L14.6589 7.72843C14.6589 7.72843 16.3161 9.88056 16.877 10.626C17.4359 11.3715 17.2854 12.3937 17.2854 12.3937C17.2854 12.3937 19.008 14.7301 19.5253 15.7346C20.0407 16.741 19.6581 18.4654 18.6253 18.9461C17.5926 19.4246 16.8652 18.4498 16.4131 17.9868C15.9612 17.5238 14.7996 16.6606 14.4606 16.5173C14.1216 16.3721 13.0394 16.7252 12.4427 16.3408C11.844 15.9583 11.2632 14.9832 11.2632 14.9832C11.2632 14.9832 9.79431 19.8505 13.7985 22.6636C17.3468 25.1551 20.1854 25.4043 23.9299 25.2512Z" fill="#0A63F0"/>
</g>
<path d="M34.5803 0V12.716H42.5877V0H45.777V14.3282L44.1939 15.8951H32.9512L31.368 14.3282V0H34.5803Z" fill="#30B4E7"/>
<path d="M60.6621 15.8951L52.6546 5.2907V15.8951H49.4424V0H52.6546L60.6621 10.5816V0H63.8514V15.8951H60.6621Z" fill="#30B4E7"/>
<path d="M78.7363 7.97032V3.17907H73.918L70.7288 6.38074V7.97032H78.7363ZM67.5166 15.8951V4.79125L72.3119 0H81.9257V15.8951H78.7363V11.1494H70.7288V15.8951H67.5166Z" fill="#30B4E7"/>
<path d="M96.8103 7.97032V3.17907H91.9921L88.8029 6.38074V7.97032H96.8103ZM85.5907 15.8951V4.79125L90.386 0H100V15.8951H96.8103V11.1494H88.8029V15.8951H85.5907Z" fill="#30B4E7"/>
<path d="M34.7873 19.4354C36.1567 19.4354 37.2931 19.9157 38.1965 20.8761C39.1095 21.8366 39.5659 23.0206 39.5659 24.428C39.5659 25.8259 39.1095 27.0098 38.1965 27.9798C37.2931 28.9403 36.1567 29.4205 34.7873 29.4205H30.8646V19.4354H34.7873ZM34.7873 27.8514C35.7288 27.8514 36.4943 27.5281 37.0839 26.8815C37.683 26.2348 37.9826 25.417 37.9826 24.428C37.9826 23.4295 37.683 22.6116 37.0839 21.9745C36.4943 21.3278 35.7288 21.0045 34.7873 21.0045H32.505V27.8514H34.7873Z" fill="#30B4E7"/>
<path d="M42.8445 27.8514H47.2665V29.4205H41.2041V19.4354H47.1951V21.0045H42.8445V23.6006H46.8385V25.1555H42.8445V27.8514Z" fill="#30B4E7"/>
<path d="M55.4011 19.4354V21.0045H52.591V29.4205H50.9506V21.0045H48.1262V19.4354H55.4011Z" fill="#30B4E7"/>
<path d="M62.5509 29.4205L61.8519 27.4092H57.6011L56.9022 29.4205H55.1191L58.7423 19.4354H60.7108L64.3197 29.4205H62.5509ZM58.1432 25.8687H61.3099L59.7265 21.3611L58.1432 25.8687Z" fill="#30B4E7"/>
<path d="M65.5361 19.4354H67.1765V29.4205H65.5361V19.4354Z" fill="#30B4E7"/>
<path d="M70.9549 27.8514H75.0202V29.4205H69.3145V19.4354H70.9549V27.8514Z" fill="#30B4E7"/>
<path d="M76.3804 19.4354H78.0208V29.4205H76.3804V19.4354Z" fill="#30B4E7"/>
<path d="M86.1498 19.4354H87.7902V29.4205H86.5064L81.7992 22.6449V29.4205H80.1588V19.4354H81.4426L86.1498 26.211V19.4354Z" fill="#30B4E7"/>
<path d="M99.6412 24.2568V24.9415C99.6412 26.3109 99.1894 27.433 98.286 28.3079C97.3826 29.1733 96.2034 29.606 94.7485 29.606C93.2079 29.606 91.9336 29.1067 90.9256 28.1082C89.9271 27.1097 89.4278 25.883 89.4278 24.428C89.4278 22.9825 89.9271 21.7605 90.9256 20.762C91.9336 19.754 93.1794 19.25 94.6629 19.25C95.5948 19.25 96.4459 19.464 97.2162 19.8919C97.9865 20.3198 98.5856 20.8952 99.0135 21.6179L97.6013 22.431C97.3351 21.9555 96.9404 21.5751 96.4174 21.2898C95.8944 20.995 95.3095 20.8476 94.6629 20.8476C93.6168 20.8476 92.7562 21.19 92.081 21.8747C91.4058 22.5593 91.0682 23.4152 91.0682 24.4422C91.0682 25.4693 91.4058 26.3204 92.081 26.9956C92.7657 27.6708 93.6596 28.0083 94.7627 28.0083C95.6471 28.0083 96.3651 27.8039 96.9166 27.395C97.4777 26.9766 97.8343 26.4202 97.9865 25.726H94.6486V24.2568H99.6412Z" fill="#30B4E7"/>
<defs>
<filter id="filter0_i_2612_5443" x="0" y="2.57642" width="23.9299" height="28.5444" filterUnits="userSpaceOnUse" color-interpolation-filters="sRGB">
<feFlood flood-opacity="0" result="BackgroundImageFix"/>
<feBlend mode="normal" in="SourceGraphic" in2="BackgroundImageFix" result="shape"/>
<feColorMatrix in="SourceAlpha" type="matrix" values="0 0 0 0 0 0 0 0 0 0 0 0 0 0 0 0 0 0 127 0" result="hardAlpha"/>
<feOffset dy="-3"/>
<feGaussianBlur stdDeviation="2"/>
<feComposite in2="hardAlpha" operator="arithmetic" k2="-1" k3="1"/>
<feColorMatrix type="matrix" values="0 0 0 0 0.188235 0 0 0 0 0.705882 0 0 0 0 0.905882 0 0 0 0.68 0"/>
<feBlend mode="normal" in2="shape" result="effect1_innerShadow_2612_5443"/>
</filter>
</defs>
</svg>
